<svg width="40" height="48" viewBox="0 0 40 48" fill="none" xmlns="http://www.w3.org/2000/svg">
<g clip-path="url(#clip0_11862_572)">
<path d="M34.061 6.92287C33.6718 6.3269 33.1033 6.30979 32.4554 6.29028C32.382 6.28807 32.3076 6.28583 32.2323 6.28271C32.175 6.28008 32.1117 6.28109 32.0456 6.28216C31.7828 6.28637 31.4755 6.29131 31.3206 6.07054C31.1411 5.81459 31.1582 5.31996 31.1722 4.91162C31.1767 4.78259 31.1808 4.66209 31.1784 4.56056C31.1531 3.61198 31.1005 2.60435 30.7343 2.2675C30.4582 2.01477 29.6322 2.04978 28.8704 2.08207C28.6234 2.09254 28.3832 2.10272 28.1706 2.10272H11.9552C11.6287 2.10272 11.2864 2.07614 10.9502 2.05002C10.2949 1.99912 9.66239 1.94998 9.2132 2.10272C8.5613 2.32548 8.51716 3.496 8.47559 4.59823L8.47335 4.65753C8.43845 5.56746 8.21295 6.26959 7.46559 6.19887C6.59634 6.11793 5.7314 6.09242 5.33838 6.87913C4.87423 7.80994 4.96996 8.78429 5.14142 10.5295C5.16591 10.7788 5.19195 11.0438 5.21812 11.3267H34.3117C34.3283 11.1199 34.346 10.9158 34.3635 10.715C34.4997 9.14488 34.6184 7.77682 34.061 6.92287Z" fill="#8047F8"/>
<path fill-rule="evenodd" clip-rule="evenodd" d="M7.48384 13.0576C7.93823 19.2074 8.38765 25.3641 8.83708 31.521L8.83736 31.5248C9.08138 34.8678 9.32541 38.2108 9.57024 41.5527H10.4985C10.5618 42.0758 10.6342 42.7216 10.7105 43.4025C10.8654 44.7847 11.0365 46.3117 11.1804 47.25H11.2831C12.2286 46.904 18.7654 44.1099 18.7683 32.9862C18.7671 32.9544 18.7682 32.9227 18.7715 32.8912H17.1565C17.0783 32.8905 17.0026 32.8644 16.9408 32.817C16.8791 32.7695 16.8349 32.7033 16.8149 32.6286C16.6576 32.2398 16.5307 31.8397 16.4354 31.4317C15.4853 31.9683 14.7309 32.7876 14.2795 33.773C13.8511 32.7638 13.795 31.6379 14.1211 30.592C14.4472 29.5462 15.1347 28.6468 16.0634 28.0511C16.0754 24.8052 17.2907 21.6762 19.4794 19.2564L19.5135 19.2264C19.5771 19.1714 19.6586 19.1408 19.743 19.1401C19.7919 19.1405 19.8401 19.151 19.8847 19.1708C19.9298 19.1908 19.9702 19.22 20.0031 19.2564C22.2173 21.6795 23.4262 24.8386 23.3887 28.1037C24.3348 28.6827 25.0363 29.5814 25.3629 30.633C25.6896 31.6846 25.6193 32.8176 25.165 33.8217C24.7161 32.8348 23.961 32.0148 23.0092 31.4805C22.951 31.8759 22.8439 32.2628 22.6903 32.6324C22.6372 32.7899 22.5309 32.8912 22.4246 32.8912H20.7024C20.7051 32.9101 20.707 32.9291 20.7081 32.9481L20.7088 32.9525V32.9616C20.7094 32.978 20.7094 32.9944 20.7089 33.0109C20.7324 44.454 27.6824 47.0513 28.2683 47.25H28.4686C28.5198 46.3487 28.6863 45.105 28.8487 43.8925C28.9605 43.057 29.0704 42.2363 29.1392 41.5527H30.0783C30.3788 37.3432 30.6879 33.1455 30.9971 28.9477L30.9973 28.9454L30.9973 28.9442C31.3928 23.5747 31.7882 18.2051 32.1657 12.8104H7.54397C7.4731 12.8243 7.47794 12.9402 7.48384 13.0576ZM19.743 19.1401L19.7412 19.1401H19.745L19.743 19.1401Z" fill="#8047F8"/>
<path d="M42.5705 8.83785C42.5705 7.31979 43.0935 6.14329 44.1395 5.30836C45.2045 4.45445 46.8019 4.02749 48.9319 4.02749C50.3392 4.02749 51.5373 4.16032 52.5262 4.42598V8.35397C51.4612 8.03138 50.4058 7.87009 49.3598 7.87009C48.3328 7.87009 47.6672 7.99343 47.363 8.24012C47.0587 8.46783 46.9065 8.80939 46.9065 9.26481V18.8286C46.9065 19.7394 47.6197 20.1949 49.046 20.1949C50.4913 20.1949 51.6799 20.0525 52.6118 19.7679V23.6105C51.5848 23.8951 50.3392 24.0375 48.8748 24.0375C46.7449 24.0375 45.1569 23.62 44.111 22.7851C43.084 21.9501 42.5705 20.7736 42.5705 19.2556V8.83785Z" fill="#403937"/>
<path d="M60.9446 11.5419C60.9446 10.8208 60.5452 10.4603 59.7465 10.4603C58.9477 10.4603 58.5484 10.8208 58.5484 11.5419V19.4548C58.5484 20.1759 58.9477 20.5364 59.7465 20.5364C60.5452 20.5364 60.9446 20.1759 60.9446 19.4548V11.5419ZM54.3265 11.3996C54.3265 9.95743 54.7734 8.83785 55.6672 8.04087C56.5801 7.22491 57.9398 6.81693 59.7465 6.81693C61.5531 6.81693 62.9034 7.22491 63.7972 8.04087C64.71 8.83785 65.1665 9.95743 65.1665 11.3996V19.5971C65.1665 21.0393 64.71 22.1684 63.7972 22.9843C62.9034 23.7813 61.5531 24.1798 59.7465 24.1798C57.9398 24.1798 56.5801 23.7813 55.6672 22.9843C54.7734 22.1684 54.3265 21.0393 54.3265 19.5971V11.3996Z" fill="#403937"/>
<path d="M67.9391 6.90232C67.9391 3.69541 69.6316 2.09196 73.0167 2.09196C73.4542 2.09196 73.9771 2.1394 74.5857 2.23428V5.53607C74.2814 5.49811 73.9961 5.47914 73.7299 5.47914C72.76 5.47914 72.2751 5.93456 72.2751 6.8454V7.10157H74.5857V10.4603H72.2751V23.8951H67.9391V10.4603H66.3131V7.10157H67.9391V6.90232Z" fill="#403937"/>
<path d="M76.3521 6.90232C76.3521 3.69541 78.0446 2.09196 81.4298 2.09196C81.8672 2.09196 82.3901 2.1394 82.9987 2.23428V5.53607C82.6944 5.49811 82.4092 5.47914 82.1429 5.47914C81.173 5.47914 80.6881 5.93456 80.6881 6.8454V7.10157H82.9987V10.4603H80.6881V23.8951H76.3521V10.4603H74.7261V7.10157H76.3521V6.90232Z" fill="#403937"/>
<path d="M83.9949 19.1132V11.3996C83.9949 9.95743 84.4418 8.83785 85.3356 8.04087C86.2295 7.22491 87.5797 6.81693 89.3864 6.81693C92.8666 6.81693 94.6067 8.34448 94.6067 11.3996V17.1777H88.1312V18.7717C88.1312 19.341 88.2833 19.7489 88.5876 19.9956C88.9109 20.2233 89.6051 20.3372 90.67 20.3372C91.754 20.3372 92.9331 20.1474 94.2073 19.7679V23.5251C92.8761 23.8857 91.4498 24.0659 89.9284 24.0659C85.9727 24.0659 83.9949 22.415 83.9949 19.1132ZM88.1312 13.9044H90.6415V11.4565C90.6415 10.7354 90.2231 10.3749 89.3864 10.3749C88.5496 10.3749 88.1312 10.7354 88.1312 11.4565V13.9044Z" fill="#403937"/>
<path d="M96.308 19.1132V11.3996C96.308 9.95743 96.7549 8.83785 97.6487 8.04087C98.5425 7.22491 99.8928 6.81693 101.699 6.81693C105.18 6.81693 106.92 8.34448 106.92 11.3996V17.1777H100.444V18.7717C100.444 19.341 100.596 19.7489 100.901 19.9956C101.224 20.2233 101.918 20.3372 102.983 20.3372C104.067 20.3372 105.246 20.1474 106.52 19.7679V23.5251C105.189 23.8857 103.763 24.0659 102.241 24.0659C98.2858 24.0659 96.308 22.415 96.308 19.1132ZM100.444 13.9044H102.955V11.4565C102.955 10.7354 102.536 10.3749 101.699 10.3749C100.863 10.3749 100.444 10.7354 100.444 11.4565V13.9044Z" fill="#403937"/>
<path d="M49.4366 34.3756C49.4366 32.9743 48.6954 32.2737 47.213 32.2737H44.849V45.0488H47.213C48.6954 45.0488 49.4366 44.3326 49.4366 42.9001V34.3756ZM43.1871 30.8257H47.3066C48.555 30.8257 49.499 31.1449 50.1388 31.7832C50.7785 32.4216 51.0984 33.2779 51.0984 34.3523V42.9468C51.0984 44.0523 50.7863 44.9242 50.1622 45.5626C49.538 46.201 48.6018 46.5201 47.3534 46.5201H43.1871V30.8257Z" fill="#403937"/>
<path d="M53.8333 43.1337V36.641C53.8333 35.5356 54.1454 34.6559 54.7695 34.0019C55.4093 33.3324 56.369 32.9977 57.6485 32.9977C58.928 32.9977 59.8721 33.3324 60.4806 34.0019C61.1048 34.6559 61.4169 35.5356 61.4169 36.641V40.7048H55.4717V43.0636C55.4717 43.7643 55.6902 44.2859 56.1271 44.6284C56.564 44.9709 57.2428 45.1422 58.1634 45.1422C59.0841 45.1422 60.0359 45.0021 61.019 44.7218V46.2632C60.2388 46.5123 59.3103 46.6369 58.2337 46.6369C55.3001 46.6369 53.8333 45.4692 53.8333 43.1337ZM55.4717 39.3268H59.8253V36.641C59.8253 35.1775 59.0997 34.4457 57.6485 34.4457C56.1973 34.4457 55.4717 35.1775 55.4717 36.641V39.3268Z" fill="#403937"/>
<path d="M64.2618 29.7047H65.9237V46.5201H64.2618V29.7047Z" fill="#403937"/>
<path d="M69.9726 31.7365C69.3016 31.7365 68.9661 31.3784 68.9661 30.6622C68.9661 29.946 69.3016 29.5879 69.9726 29.5879C70.6592 29.5879 71.0024 29.946 71.0024 30.6622C71.0024 31.3784 70.6592 31.7365 69.9726 31.7365ZM69.1534 33.3247H70.8152V46.5201H69.1534V33.3247Z" fill="#403937"/>
<path d="M79.3815 33.2312H81.0667L78.1175 46.5201H75.7769L72.8278 33.2312H74.5364L75.8237 39.3268L76.9706 45.3524C77.4388 42.7678 78.2424 38.7274 79.3815 33.2312Z" fill="#403937"/>
<path d="M82.8396 43.1337V36.641C82.8396 35.5356 83.1516 34.6559 83.7758 34.0019C84.4156 33.3324 85.3752 32.9977 86.6548 32.9977C87.9343 32.9977 88.8783 33.3324 89.4869 34.0019C90.1111 34.6559 90.4232 35.5356 90.4232 36.641V40.7048H84.478V43.0636C84.478 43.7643 84.6964 44.2859 85.1334 44.6284C85.5703 44.9709 86.2491 45.1422 87.1697 45.1422C88.0903 45.1422 89.0422 45.0021 90.0252 44.7218V46.2632C89.245 46.5123 88.3166 46.6369 87.2399 46.6369C84.3063 46.6369 82.8396 45.4692 82.8396 43.1337ZM84.478 39.3268H88.8315V36.641C88.8315 35.1775 88.1059 34.4457 86.6548 34.4457C85.2036 34.4457 84.478 35.1775 84.478 36.641V39.3268Z" fill="#403937"/>
<path d="M97.5748 33.1612H98.16V34.7493H97.3642C96.8024 34.7493 96.2953 34.8972 95.8428 35.193C95.7023 35.2865 95.3981 35.4967 94.9299 35.8236V46.5201H93.2681V33.2312H94.8597V34.2355C94.9065 34.2044 95.0236 34.1187 95.2108 33.9786C95.4137 33.8385 95.5307 33.7606 95.5619 33.745C95.6087 33.7139 95.7101 33.6516 95.8662 33.5582C96.0378 33.4648 96.1627 33.4103 96.2407 33.3947C96.3343 33.3636 96.4591 33.3247 96.6152 33.2779C96.8492 33.2001 97.1691 33.1612 97.5748 33.1612Z" fill="#403937"/>
<path d="M105.28 33.2312H106.942L103.291 50H101.699L102.425 46.5201H101.605L98.7031 33.2312H100.388L101.793 39.8407L102.823 45.3524C103.135 43.5151 103.478 41.6779 103.852 39.8407L105.28 33.2312Z" fill="#403937"/>
</g>
<defs>
<clipPath id="clip0_11862_572">
<rect width="40" height="48" fill="white"/>
</clipPath>
</defs>
</svg>
